<svg width="87" height="44" viewBox="0 0 87 44" fill="none" xmlns="http://www.w3.org/2000/svg">
<rect x="41.9417" y="9.39746" width="2.27711" height="5.00963" fill="#3D8F84"/>
<path d="M24 23H63V29C63 34.5228 58.5228 39 53 39H34C28.4772 39 24 34.5228 24 29V23Z" fill="#8F3D48"/>
<ellipse cx="43.5" cy="23" rx="19.5" ry="9" fill="#8F3D48"/>
<rect x="25.0818" y="26.7035" width="4.55421" height="16.3952" transform="rotate(89.8473 25.0818 26.7035)" fill="#8F3D48"/>
<rect width="4.55421" height="16.3952" transform="matrix(-0.00266502 0.999996 0.999996 0.00266502 62.666 26.7035)" fill="#8F3D48"/>
<rect x="27.0344" y="19.7841" width="4.55421" height="16.3952" transform="rotate(109.145 27.0344 19.7841)" fill="#8F3D48"/>
<rect width="4.55421" height="16.3952" transform="matrix(0.327956 0.944693 0.944693 -0.327956 60.7131 19.7841)" fill="#8F3D48"/>
<rect width="4.55421" height="16.3952" transform="matrix(-0.327956 -0.944693 -0.944693 0.327956 30.5793 38.2926)" fill="#8F3D48"/>
<rect x="57.1685" y="38.2926" width="4.55421" height="16.3952" transform="rotate(-70.8553 57.1685 38.2926)" fill="#8F3D48"/>
<ellipse cx="48.4617" cy="6.8337" rx="5.97741" ry="3.13102" transform="rotate(-27.2442 48.4617 6.8337)" fill="#3D8F84"/>
<ellipse cx="5.97741" cy="3.13102" rx="5.97741" ry="3.13102" transform="matrix(-0.889064 -0.457784 -0.457784 0.889064 44.9624 6.21741)" fill="#3D8F84"/>
<path d="M9.06262 7.74622L7.33494 16.7357L13.289 15.5564L9.06262 7.74622Z" fill="#8F3D48"/>
<path d="M78.6022 7.74622L80.3299 16.7357L74.3758 15.5564L78.6022 7.74622Z" fill="#8F3D48"/>
<path d="M0.674998 18.8066L10.4921 14.1735L12.3658 19.5064L0.674998 18.8066Z" fill="#8F3D48"/>
<path d="M86.9896 18.8066L77.1725 14.1735L75.2987 19.5064L86.9896 18.8066Z" fill="#8F3D48"/>
</svg>
